<?xml version="1.0" standalone="no"?>
<!DOCTYPE svg PUBLIC "-//W3C//DTD SVG 20010904//EN"
 "http://www.w3.org/TR/2001/REC-SVG-20010904/DTD/svg10.dtd">
<svg version="1.0" xmlns="http://www.w3.org/2000/svg"
 width="500.000000pt" height="500.000000pt" viewBox="0 0 500.000000 500.000000"
 preserveAspectRatio="xMidYMid meet">
<metadata>
Created by potrace 1.14, written by Peter Selinger 2001-2017
</metadata>
<g transform="translate(0.000000,500.000000) scale(0.100000,-0.100000)"
fill="#000000" stroke="none">
<path d="M2975 4774 c339 -88 565 -303 723 -685 92 -223 131 -398 139 -629 13
-367 -76 -636 -303 -920 -103 -130 -210 -217 -337 -275 -107 -49 -166 -60
-302 -59 -98 1 -136 6 -209 28 -200 60 -390 176 -577 353 l-55 52 -312 3 -312
3 0 -35 c0 -106 38 -230 101 -336 49 -81 157 -186 226 -220 l58 -29 619 -3
c665 -4 779 1 931 42 498 135 866 555 951 1085 33 208 16 460 -43 624 -124
345 -415 664 -768 840 -175 88 -360 149 -490 161 -33 3 -51 3 -40 0z"/>
<path d="M1470 4694 c-188 -109 -320 -203 -416 -299 -75 -74 -95 -100 -114
-150 -51 -140 -53 -157 -57 -823 -6 -826 -4 -841 124 -926 347 -233 486 -323
608 -394 6 -3 -17 21 -50 54 -74 73 -127 152 -163 241 l-27 68 -3 935 c-2 674
0 952 8 995 21 106 86 228 173 323 22 23 38 42 36 42 -3 0 -56 -30 -119 -66z"/>
<path d="M1678 4743 c-42 -4 -52 -10 -93 -56 -82 -94 -135 -226 -150 -375 l-7
-74 748 3 c820 4 816 4 1079 -58 112 -26 286 -83 338 -110 16 -8 31 -12 34
-10 10 11 -100 207 -165 292 -159 210 -358 321 -664 371 -85 14 -189 17 -588
19 -267 1 -506 0 -532 -2z"/>
<path d="M1430 3924 l1 -245 28 -62 c128 -284 360 -605 641 -888 254 -255 448
-378 688 -435 90 -22 258 -22 342 -1 82 21 233 96 285 141 l40 34 -42 -11
c-89 -23 -212 24 -369 141 -165 124 -501 468 -710 727 -193 239 -420 566 -528
758 l-48 87 -165 0 -164 0 1 -246z"/>
<path d="M3910 1136 l0 -346 55 0 55 0 2 223 3 223 345 -223 c190 -122 348
-223 353 -223 4 0 7 153 7 340 l0 340 -45 0 -45 0 0 -226 c0 -177 -3 -225 -12
-221 -7 2 -166 103 -353 224 -187 121 -346 223 -352 227 -10 6 -13 -65 -13
-338z"/>
<path d="M262 1129 l3 -340 260 1 c179 0 280 5 325 14 159 34 256 94 305 191
26 50 30 69 29 134 0 62 -5 86 -26 127 -51 98 -158 167 -311 198 -58 12 -138
16 -332 16 l-255 0 2 -341z m511 246 c172 -36 260 -136 244 -275 -12 -99 -63
-161 -164 -201 -51 -20 -81 -23 -245 -27 l-188 -4 0 261 0 261 143 0 c85 0
169 -6 210 -15z"/>
<path d="M1300 1130 l0 -340 360 0 360 0 0 40 0 40 -277 2 -278 3 0 108 0 108
223 -1 222 -1 0 45 0 46 -222 2 -223 3 -3 97 -3 98 278 2 278 3 3 43 3 42
-360 0 -361 0 0 -340z"/>
<path d="M2258 1297 l173 -173 -186 -167 -185 -167 72 0 73 1 144 129 c79 72
146 130 150 130 3 0 65 -58 136 -130 l130 -130 99 0 100 0 -183 178 -184 177
176 159 c98 87 177 160 177 162 0 2 -30 4 -67 4 l-68 0 -139 -125 c-77 -69
-142 -125 -146 -125 -3 0 -61 56 -130 125 l-125 125 -95 0 -95 0 173 -173z"/>
<path d="M3060 1130 l0 -340 358 0 357 0 0 40 0 40 -278 0 -278 0 3 111 3 110
220 2 220 2 3 43 3 42 -225 0 -226 0 0 100 0 100 277 2 276 3 0 40 0 40 -356
3 -357 2 0 -340z"/>
<path d="M2425 421 c-43 -18 -60 -50 -60 -111 0 -63 15 -89 68 -117 56 -28
129 19 143 92 17 94 -67 170 -151 136z m92 -26 c48 -33 51 -118 6 -167 -18
-20 -73 -24 -102 -8 -46 24 -52 122 -10 166 26 28 74 32 106 9z"/>
<path d="M3250 417 c-30 -15 -60 -71 -60 -112 0 -42 34 -92 74 -112 29 -13 39
-14 64 -4 49 21 74 55 79 108 8 98 -74 161 -157 120z m107 -31 c24 -21 28 -32
28 -74 0 -65 -31 -102 -85 -102 -68 0 -110 82 -76 148 29 57 86 69 133 28z"/>
<path d="M4133 411 c-22 -14 -35 -33 -43 -62 -19 -70 7 -130 67 -156 33 -13
40 -13 74 2 50 23 74 68 67 130 -10 87 -94 131 -165 86z m121 -32 c30 -35 34
-84 11 -128 -16 -33 -33 -41 -79 -41 -57 0 -94 64 -76 131 20 73 97 94 144 38z"/>
<path d="M270 304 l0 -116 69 4 c50 2 75 9 90 22 26 24 27 60 3 84 -16 16 -17
22 -5 37 38 52 4 85 -88 85 l-69 0 0 -116z"/>
<path d="M487 313 c2 -111 16 -152 21 -63 l3 50 45 0 c55 0 84 -25 84 -75 0
-19 5 -35 10 -35 17 0 11 79 -7 98 -17 16 -17 18 0 35 21 21 22 60 1 81 -11
12 -35 16 -87 16 l-72 0 2 -107z"/>
<path d="M1533 408 c3 -9 18 -61 33 -117 15 -58 32 -101 39 -101 7 0 22 38 35
88 32 122 35 125 54 56 30 -106 42 -138 53 -141 5 -2 22 40 37 94 15 54 29
106 32 116 3 9 1 17 -5 17 -9 0 -20 -31 -52 -150 -13 -51 -10 -56 -49 78 -32
111 -42 102 -91 -78 -13 -50 -13 -50 -44 64 -12 44 -28 82 -35 84 -8 3 -11 -1
-7 -10z"/>
<path d="M2150 305 l0 -115 45 0 c55 0 110 21 124 48 6 12 11 46 11 77 0 46
-4 60 -25 80 -21 22 -33 25 -90 25 l-65 0 0 -115z m143 74 c11 -14 17 -38 17
-71 0 -67 -30 -98 -95 -98 l-45 0 0 101 0 102 53 -6 c36 -5 57 -13 70 -28z"/>
<path d="M2596 398 c4 -13 17 -60 30 -105 37 -135 42 -135 79 -3 15 56 30 99
32 96 3 -3 17 -46 32 -97 15 -51 31 -94 37 -96 12 -4 78 216 68 226 -9 10 -21
-19 -39 -100 -10 -44 -22 -82 -25 -84 -4 -3 -18 36 -31 86 -21 80 -39 112 -55
97 -2 -3 -15 -45 -29 -93 -13 -48 -26 -89 -28 -92 -3 -2 -15 39 -28 91 -15 63
-28 96 -37 96 -9 0 -11 -7 -6 -22z"/>
</g>
</svg>
